<svg width="24" height="24" viewBox="0 0 24 24" fill="none" xmlns="http://www.w3.org/2000/svg">
<path d="M15.4768 12.8892L16.9918 21.4152C17.0087 21.5156 16.9946 21.6187 16.9514 21.7109C16.9081 21.8031 16.8377 21.8799 16.7497 21.931C16.6616 21.9821 16.56 22.0051 16.4586 21.9969C16.3571 21.9887 16.2605 21.9497 16.1818 21.8852L12.6018 19.1982C12.4289 19.069 12.219 18.9993 12.0033 18.9993C11.7875 18.9993 11.5776 19.069 11.4048 19.1982L7.81875 21.8842C7.74007 21.9486 7.64361 21.9875 7.54225 21.9957C7.44088 22.0039 7.33942 21.981 7.25141 21.93C7.16341 21.8791 7.09303 21.8025 7.04967 21.7105C7.00631 21.6185 6.99204 21.5155 7.00875 21.4152L8.52275 12.8892" stroke="#6B7280" stroke-width="1.99988" stroke-linecap="round" stroke-linejoin="round"/>
<path d="M12 14C15.3137 14 18 11.3137 18 8C18 4.68629 15.3137 2 12 2C8.68629 2 6 4.68629 6 8C6 11.3137 8.68629 14 12 14Z" stroke="#6B7280" stroke-width="1.99988" stroke-linecap="round" stroke-linejoin="round"/>
</svg>
