<svg width="24" height="24" viewBox="0 0 24 24" fill="none" xmlns="http://www.w3.org/2000/svg">
<path d="M11.9994 21.9988C17.5219 21.9988 21.9988 17.5219 21.9988 11.9994C21.9988 6.47689 17.5219 2 11.9994 2C6.47689 2 2 6.47689 2 11.9994C2 17.5219 6.47689 21.9988 11.9994 21.9988Z" stroke="#6B7280" stroke-width="1.99988" stroke-linecap="round" stroke-linejoin="round"/>
<path d="M12 17.9995C15.3137 17.9995 18 15.3132 18 11.9995C18 8.6858 15.3137 5.99951 12 5.99951C8.68629 5.99951 6 8.6858 6 11.9995C6 15.3132 8.68629 17.9995 12 17.9995Z" stroke="#6B7280" stroke-width="1.99988" stroke-linecap="round" stroke-linejoin="round"/>
<path d="M11.999 13.9995C13.1036 13.9995 13.999 13.1041 13.999 11.9995C13.999 10.8949 13.1036 9.99951 11.999 9.99951C10.8945 9.99951 9.99902 10.8949 9.99902 11.9995C9.99902 13.1041 10.8945 13.9995 11.999 13.9995Z" stroke="#6B7280" stroke-width="1.99988" stroke-linecap="round" stroke-linejoin="round"/>
</svg>
