<svg width="210" height="44" viewBox="0 0 210 44" fill="none" xmlns="http://www.w3.org/2000/svg">
<path d="M27.7711 20.9187L25.8748 27.591C25.53 28.8356 24.9439 29.6999 23.7372 30.3567C22.427 31.0482 19.6688 31.8433 16.5659 31.8433C11.0494 31.8433 5.22266 28.559 5.22266 21.3336C5.22266 13.797 11.601 6.8136 20.2894 6.8136C24.3233 6.8136 27.2539 8.16189 28.702 9.51017C29.2536 9.99417 29.7708 10.6165 29.7708 11.6536C29.7708 13.1056 28.5985 14.281 27.1505 14.281C26.392 14.281 25.8748 14.0045 25.4956 13.7279C23.9096 12.4833 22.4615 11.6882 19.8757 11.6882C14.704 11.6882 10.7391 16.1133 10.7391 21.1607C10.7391 24.929 13.4973 26.9687 16.9106 26.9687C18.7724 26.9687 20.1515 26.5193 21.2203 26.0353L22.3581 22.0942H19.393C18.1173 22.0942 17.083 21.0916 17.083 19.8125C17.083 18.5333 18.1173 17.4962 19.393 17.4962H25.6335C27.3918 17.4962 28.3572 18.8099 27.7711 20.9187ZM31.8184 32.3619C32.3356 32.5002 32.7493 32.6385 33.3699 32.6385C33.9905 32.6385 34.5422 32.3619 35.1628 31.5322L32.9562 16.3899C32.8872 16.0096 32.8528 15.491 32.8528 15.1453C32.8528 13.7625 34.025 12.6907 35.4731 12.6907C36.8866 12.6907 37.9555 13.555 38.0244 14.9379L39.0932 25.6205L45.575 14.3502C46.1266 13.3476 47.0231 12.6907 48.2298 12.6907C49.5744 12.6907 50.5053 13.4513 50.5053 14.7305C50.5053 15.1799 50.264 15.8022 49.8157 16.5282L40.231 31.8779C37.852 35.6807 35.7489 37.0636 32.7493 37.0636C31.8529 37.0636 30.9565 36.9945 30.2669 36.6833C29.474 36.3376 28.681 35.6807 28.681 34.4016C28.681 33.1225 29.6808 32.1199 30.7496 32.1199C31.0944 32.1199 31.4392 32.2582 31.8184 32.3619ZM62.2896 28.1787L64.1514 21.2645C64.2893 20.7459 64.3927 20.0545 64.3927 19.605C64.3927 18.1185 63.5653 17.3233 61.9448 17.3233C59.8762 17.3233 58.6005 18.8099 58.0144 21.0225L55.8768 28.9739C55.4285 30.6679 54.3253 31.6359 52.9462 31.6359C51.1878 31.6359 50.2569 30.3567 50.843 28.1787L54.2563 15.3527C54.7045 13.6587 55.8078 12.6907 57.2903 12.6907C58.8074 12.6907 59.6348 13.6587 59.6348 14.8342C60.945 13.6587 62.462 12.5525 64.5306 12.5525C67.0475 12.5525 68.7024 13.8662 69.4265 15.9059C71.0469 13.9353 73.2535 12.5525 76.0462 12.5525C79.356 12.5525 81.3902 14.5922 81.3902 17.9456C81.3902 18.9827 81.0799 20.2965 80.7696 21.4719L78.7699 28.9739C78.3217 30.6679 77.2184 31.6359 75.8393 31.6359C74.0809 31.6359 73.15 30.3567 73.7362 28.1787L75.5979 21.2645C75.7359 20.7459 75.8393 20.0545 75.8393 19.605C75.8393 18.1185 75.0118 17.3233 73.3914 17.3233C71.3227 17.3233 70.0471 18.8099 69.4609 21.0225L67.3233 28.9739C66.8751 30.6679 65.7718 31.6359 64.3927 31.6359C62.6344 31.6359 61.7035 30.3567 62.2896 28.1787ZM94.4302 31.7742C91.5341 31.7742 89.8447 30.5642 88.638 28.7319L88.5691 28.9739C88.1898 30.4259 87.2589 31.6359 85.6729 31.6359C83.9146 31.6359 82.9837 30.3567 83.5698 28.1787L88.7414 8.64589C89.1897 6.95189 90.2929 5.98389 91.672 5.98389C93.4304 5.98389 94.3613 7.26303 93.7752 9.44103L92.3271 14.9033C93.9131 13.4167 95.4646 12.5525 97.5332 12.5525C101.567 12.5525 104.636 15.491 104.636 20.5039C104.636 27.0725 99.6364 31.7742 94.4302 31.7742ZM93.7407 27.349C96.5679 27.349 99.2226 24.5833 99.2226 20.8496C99.2226 18.4296 97.7056 16.9776 95.3611 16.9776C92.465 16.9776 89.7758 19.8816 89.7758 23.4079C89.7758 25.7587 91.4307 27.349 93.7407 27.349ZM120.282 31.6359C118.765 31.6359 117.938 30.6679 117.938 29.4925C116.628 30.6679 114.973 31.7742 112.904 31.7742C109.594 31.7742 107.457 29.7345 107.457 26.381C107.457 25.3439 107.767 24.0302 108.077 22.8547L110.077 15.3527C110.525 13.6587 111.629 12.6907 113.008 12.6907C114.766 12.6907 115.697 13.9699 115.111 16.1479L113.249 23.0622C113.111 23.5807 113.008 24.2722 113.008 24.7216C113.008 26.2082 113.939 27.0033 115.559 27.0033C117.628 27.0033 118.972 25.5167 119.558 23.3042L121.696 15.3527C122.144 13.6587 123.248 12.6907 124.627 12.6907C126.385 12.6907 127.316 13.9699 126.73 16.1479L123.317 28.9739C122.868 30.6679 121.765 31.6359 120.282 31.6359ZM143.488 31.6359C141.971 31.6359 141.178 30.737 141.178 29.4233C139.592 30.9099 138.041 31.7742 135.972 31.7742C131.938 31.7742 128.87 28.8356 128.87 23.8227C128.87 17.2542 133.869 12.5525 139.075 12.5525C141.971 12.5525 143.661 13.7625 144.868 15.5947L146.695 8.64589C147.143 6.95189 148.246 5.98389 149.625 5.98389C151.384 5.98389 152.315 7.26303 151.729 9.44103L146.522 28.9739C146.074 30.6679 144.971 31.6359 143.488 31.6359ZM138.144 27.349C141.041 27.349 143.73 24.445 143.73 20.9187C143.73 18.5679 142.075 16.9776 139.765 16.9776C136.938 16.9776 134.283 19.7433 134.283 23.477C134.283 25.897 135.8 27.349 138.144 27.349ZM166.721 31.6359C165.204 31.6359 164.411 30.737 164.411 29.4233C162.825 30.9099 161.273 31.7742 159.205 31.7742C155.17 31.7742 152.102 28.8356 152.102 23.8227C152.102 17.2542 157.101 12.5525 162.308 12.5525C165.204 12.5525 166.893 13.7625 168.1 15.5947L169.927 8.64589C170.375 6.95189 171.479 5.98389 172.858 5.98389C174.616 5.98389 175.547 7.26303 174.961 9.44103L169.755 28.9739C169.307 30.6679 168.203 31.6359 166.721 31.6359ZM161.377 27.349C164.273 27.349 166.962 24.445 166.962 20.9187C166.962 18.5679 165.307 16.9776 162.997 16.9776C160.17 16.9776 157.515 19.7433 157.515 23.477C157.515 25.897 159.032 27.349 161.377 27.349ZM176.092 32.3619C176.61 32.5002 177.023 32.6385 177.644 32.6385C178.264 32.6385 178.816 32.3619 179.437 31.5322L177.23 16.3899C177.161 16.0096 177.127 15.491 177.127 15.1453C177.127 13.7625 178.299 12.6907 179.747 12.6907C181.161 12.6907 182.229 13.555 182.298 14.9379L183.367 25.6205L189.849 14.3502C190.401 13.3476 191.297 12.6907 192.504 12.6907C193.848 12.6907 194.779 13.4513 194.779 14.7305C194.779 15.1799 194.538 15.8022 194.09 16.5282L184.505 31.8779C182.126 35.6807 180.023 37.0636 177.023 37.0636C176.127 37.0636 175.23 36.9945 174.541 36.6833C173.748 36.3376 172.955 35.6807 172.955 34.4016C172.955 33.1225 173.955 32.1199 175.024 32.1199C175.368 32.1199 175.713 32.2582 176.092 32.3619ZM203.289 18.9827C199.91 18.9827 197.29 16.2516 197.29 12.9673V12.9327C197.29 9.64846 199.945 6.88274 203.289 6.88274C206.668 6.88274 209.288 9.61389 209.288 12.8982V12.9327C209.288 16.217 206.633 18.9827 203.289 18.9827ZM203.289 18.3259C206.288 18.3259 208.598 15.8713 208.598 12.9327V12.8982C208.598 9.9596 206.323 7.5396 203.289 7.5396C200.289 7.5396 197.979 9.99417 197.979 12.9327V12.9673C197.979 15.9059 200.255 18.3259 203.289 18.3259ZM200.669 15.249V10.5473C200.669 10.0633 201.082 9.64846 201.565 9.64846H203.703C205.289 9.64846 206.357 10.3399 206.357 11.8265C206.357 12.7253 205.909 13.3822 205.185 13.7279L205.978 14.6613C206.151 14.8687 206.22 15.0416 206.22 15.2836C206.22 15.7676 205.806 16.1479 205.323 16.1479C205.013 16.1479 204.806 16.0096 204.634 15.8022L203.289 14.1082H202.461V15.249C202.461 15.733 202.048 16.1479 201.565 16.1479C201.082 16.1479 200.669 15.733 200.669 15.249ZM202.461 12.6907H203.599C204.22 12.6907 204.565 12.3796 204.565 11.9302C204.565 11.4462 204.22 11.1696 203.599 11.1696H202.461V12.6907Z" fill="white"/>
<path fill-rule="evenodd" clip-rule="evenodd" d="M112.667 42.6314C108.459 42.0113 105.502 38.0823 106.12 33.8635C106.173 33.5008 106.67 33.5002 106.804 33.8412C107.901 36.6322 110.428 38.7789 113.591 39.2452C115.628 39.5453 117.612 39.1015 119.262 38.1184C119.945 37.711 120.853 38.2643 120.444 38.9478C118.883 41.5525 115.846 43.0999 112.667 42.6314Z" fill="white"/>
</svg>
