<svg width="208" height="44" viewBox="0 0 208 44" fill="none" xmlns="http://www.w3.org/2000/svg">
<path d="M27.5075 20.9187L25.6293 27.591C25.2878 28.8356 24.7073 29.6999 23.512 30.3567C22.2144 31.0482 19.4824 31.8433 16.409 31.8433C10.9451 31.8433 5.17383 28.559 5.17383 21.3336C5.17383 13.797 11.4914 6.8136 20.0971 6.8136C24.0926 6.8136 26.9953 8.16189 28.4295 9.51017C28.9759 9.99417 29.4882 10.6165 29.4882 11.6536C29.4882 13.1056 28.3271 14.281 26.8928 14.281C26.1415 14.281 25.6293 14.0045 25.2537 13.7279C23.6828 12.4833 22.2485 11.6882 19.6873 11.6882C14.5649 11.6882 10.6377 16.1133 10.6377 21.1607C10.6377 24.929 13.3696 26.9687 16.7505 26.9687C18.5945 26.9687 19.9605 26.5193 21.0191 26.0353L22.1461 22.0942H19.2092C17.9457 22.0942 16.9212 21.0916 16.9212 19.8125C16.9212 18.5333 17.9457 17.4962 19.2092 17.4962H25.3902C27.1319 17.4962 28.088 18.8099 27.5075 20.9187ZM31.5163 32.3619C32.0286 32.5002 32.4383 32.6385 33.053 32.6385C33.6677 32.6385 34.2141 32.3619 34.8288 31.5322L32.6432 16.3899C32.5749 16.0096 32.5408 15.491 32.5408 15.1453C32.5408 13.7625 33.7019 12.6907 35.1361 12.6907C36.5363 12.6907 37.5949 13.555 37.6632 14.9379L38.7218 25.6205L45.1419 14.3502C45.6883 13.3476 46.5761 12.6907 47.7714 12.6907C49.1032 12.6907 50.0252 13.4513 50.0252 14.7305C50.0252 15.1799 49.7862 15.8022 49.3422 16.5282L39.8487 31.8779C37.4924 35.6807 35.4093 37.0636 32.4383 37.0636C31.5505 37.0636 30.6626 36.9945 29.9796 36.6833C29.1942 36.3376 28.4087 35.6807 28.4087 34.4016C28.4087 33.1225 29.3991 32.1199 30.4577 32.1199C30.7992 32.1199 31.1407 32.2582 31.5163 32.3619ZM61.6973 28.1787L63.5413 21.2645C63.6779 20.7459 63.7804 20.0545 63.7804 19.605C63.7804 18.1185 62.9608 17.3233 61.3558 17.3233C59.3068 17.3233 58.0433 18.8099 57.4628 21.0225L55.3455 28.9739C54.9016 30.6679 53.8088 31.6359 52.4428 31.6359C50.7012 31.6359 49.7792 30.3567 50.3597 28.1787L53.7405 15.3527C54.1844 13.6587 55.2772 12.6907 56.7456 12.6907C58.2482 12.6907 59.0678 13.6587 59.0678 14.8342C60.3655 13.6587 61.868 12.5525 63.917 12.5525C66.4099 12.5525 68.049 13.8662 68.7662 15.9059C70.3712 13.9353 72.5567 12.5525 75.3228 12.5525C78.6012 12.5525 80.616 14.5922 80.616 17.9456C80.616 18.9827 80.3086 20.2965 80.0013 21.4719L78.0206 28.9739C77.5767 30.6679 76.4839 31.6359 75.1179 31.6359C73.3763 31.6359 72.4543 30.3567 73.0348 28.1787L74.8789 21.2645C75.0155 20.7459 75.1179 20.0545 75.1179 19.605C75.1179 18.1185 74.2983 17.3233 72.6933 17.3233C70.6444 17.3233 69.3809 18.8099 68.8003 21.0225L66.6831 28.9739C66.2391 30.6679 65.1463 31.6359 63.7804 31.6359C62.0388 31.6359 61.1167 30.3567 61.6973 28.1787ZM93.5318 31.7742C90.6633 31.7742 88.99 30.5642 87.7948 28.7319L87.7265 28.9739C87.3508 30.4259 86.4288 31.6359 84.8579 31.6359C83.1163 31.6359 82.1943 30.3567 82.7748 28.1787L87.8972 8.64589C88.3411 6.95189 89.4339 5.98389 90.7999 5.98389C92.5415 5.98389 93.4635 7.26303 92.883 9.44103L91.4487 14.9033C93.0196 13.4167 94.5563 12.5525 96.6053 12.5525C100.601 12.5525 103.64 15.491 103.64 20.5039C103.64 27.0725 98.6884 31.7742 93.5318 31.7742ZM92.8488 27.349C95.6491 27.349 98.2786 24.5833 98.2786 20.8496C98.2786 18.4296 96.776 16.9776 94.4539 16.9776C91.5853 16.9776 88.9217 19.8816 88.9217 23.4079C88.9217 25.7587 90.5608 27.349 92.8488 27.349ZM119.138 31.6359C117.635 31.6359 116.816 30.6679 116.816 29.4925C115.518 30.6679 113.879 31.7742 111.83 31.7742C108.552 31.7742 106.434 29.7345 106.434 26.381C106.434 25.3439 106.742 24.0302 107.049 22.8547L109.03 15.3527C109.474 13.6587 110.566 12.6907 111.932 12.6907C113.674 12.6907 114.596 13.9699 114.015 16.1479L112.171 23.0622C112.035 23.5807 111.932 24.2722 111.932 24.7216C111.932 26.2082 112.854 27.0033 114.459 27.0033C116.508 27.0033 117.84 25.5167 118.421 23.3042L120.538 15.3527C120.982 13.6587 122.075 12.6907 123.441 12.6907C125.182 12.6907 126.104 13.9699 125.524 16.1479L122.143 28.9739C121.699 30.6679 120.606 31.6359 119.138 31.6359ZM142.123 31.6359C140.62 31.6359 139.835 30.737 139.835 29.4233C138.264 30.9099 136.727 31.7742 134.678 31.7742C130.683 31.7742 127.644 28.8356 127.644 23.8227C127.644 17.2542 132.595 12.5525 137.752 12.5525C140.62 12.5525 142.294 13.7625 143.489 15.5947L145.299 8.64589C145.743 6.95189 146.835 5.98389 148.201 5.98389C149.943 5.98389 150.865 7.26303 150.284 9.44103L145.128 28.9739C144.684 30.6679 143.591 31.6359 142.123 31.6359ZM136.83 27.349C139.698 27.349 142.362 24.445 142.362 20.9187C142.362 18.5679 140.723 16.9776 138.435 16.9776C135.634 16.9776 133.005 19.7433 133.005 23.477C133.005 25.897 134.508 27.349 136.83 27.349ZM165.134 31.6359C163.631 31.6359 162.846 30.737 162.846 29.4233C161.275 30.9099 159.738 31.7742 157.689 31.7742C153.693 31.7742 150.654 28.8356 150.654 23.8227C150.654 17.2542 155.606 12.5525 160.763 12.5525C163.631 12.5525 165.305 13.7625 166.5 15.5947L168.31 8.64589C168.754 6.95189 169.846 5.98389 171.212 5.98389C172.954 5.98389 173.876 7.26303 173.295 9.44103L168.139 28.9739C167.695 30.6679 166.602 31.6359 165.134 31.6359ZM159.841 27.349C162.709 27.349 165.373 24.445 165.373 20.9187C165.373 18.5679 163.734 16.9776 161.446 16.9776C158.645 16.9776 156.016 19.7433 156.016 23.477C156.016 25.897 157.519 27.349 159.841 27.349ZM174.416 32.3619C174.928 32.5002 175.338 32.6385 175.953 32.6385C176.568 32.6385 177.114 32.3619 177.729 31.5322L175.543 16.3899C175.475 16.0096 175.441 15.491 175.441 15.1453C175.441 13.7625 176.602 12.6907 178.036 12.6907C179.436 12.6907 180.495 13.555 180.563 14.9379L181.622 25.6205L188.042 14.3502C188.588 13.3476 189.476 12.6907 190.671 12.6907C192.003 12.6907 192.925 13.4513 192.925 14.7305C192.925 15.1799 192.686 15.8022 192.242 16.5282L182.749 31.8779C180.392 35.6807 178.309 37.0636 175.338 37.0636C174.45 37.0636 173.562 36.9945 172.879 36.6833C172.094 36.3376 171.309 35.6807 171.309 34.4016C171.309 33.1225 172.299 32.1199 173.358 32.1199C173.699 32.1199 174.041 32.2582 174.416 32.3619ZM201.354 18.9827C198.007 18.9827 195.412 16.2516 195.412 12.9673V12.9327C195.412 9.64846 198.041 6.88274 201.354 6.88274C204.7 6.88274 207.296 9.61389 207.296 12.8982V12.9327C207.296 16.217 204.666 18.9827 201.354 18.9827ZM201.354 18.3259C204.325 18.3259 206.613 15.8713 206.613 12.9327V12.8982C206.613 9.9596 204.359 7.5396 201.354 7.5396C198.383 7.5396 196.095 9.99417 196.095 12.9327V12.9673C196.095 15.9059 198.349 18.3259 201.354 18.3259ZM198.758 15.249V10.5473C198.758 10.0633 199.168 9.64846 199.646 9.64846H201.764C203.334 9.64846 204.393 10.3399 204.393 11.8265C204.393 12.7253 203.949 13.3822 203.232 13.7279L204.017 14.6613C204.188 14.8687 204.256 15.0416 204.256 15.2836C204.256 15.7676 203.847 16.1479 203.369 16.1479C203.061 16.1479 202.856 16.0096 202.686 15.8022L201.354 14.1082H200.534V15.249C200.534 15.733 200.124 16.1479 199.646 16.1479C199.168 16.1479 198.758 15.733 198.758 15.249ZM200.534 12.6907H201.661C202.276 12.6907 202.617 12.3796 202.617 11.9302C202.617 11.4462 202.276 11.1696 201.661 11.1696H200.534V12.6907Z" fill="#0059FF"/>
<path fill-rule="evenodd" clip-rule="evenodd" d="M111.594 42.6314C107.427 42.0113 104.497 38.0823 105.109 33.8635C105.162 33.5008 105.655 33.5002 105.787 33.8412C106.874 36.6322 109.377 38.7789 112.51 39.2452C114.527 39.5453 116.492 39.1015 118.126 38.1184C118.803 37.711 119.702 38.2643 119.297 38.9478C117.751 41.5525 114.743 43.0999 111.594 42.6314Z" fill="#0059FF"/>
</svg>
